<svg version="1.1" id="Layer_1" x="0px" y="0px" viewBox="0 0 192 192" style="enable-background:new 0 0 101.5 122.88" xmlns="http://www.w3.org/2000/svg">
  <defs></defs>
  <g style="" transform="matrix(1.55004, 0, 0, 1.55004, 17.257786, 0.765544)">
    <g id="Soccer_Ball" transform="matrix(0.047025, 0, 0, 0.047025, -5.347986, 21.318634)" style="">
      <g id="XMLID_3_">
        <g>
          <g>
            <path d="M2234.5,864.2c13.9,68.3,21.1,139,21.1,211.4c0,104-15,204.4-42.9,299.3c12.6-48.4-15.7-235.6-15.7-235.6
					S2239.9,895.9,2234.5,864.2z"></path>
            <path d="M2216.6,869.1c26,129,27.4,265.2,3.6,394.4c-6.6,35.9-15.1,71.4-25.4,106.4c11.9,3.3,23.9,6.6,35.8,9.9
					c3.8-14.9,4-31,3.9-46.3c-0.1-19.9-1.4-39.9-3.1-59.7c-3.2-38.6-7.8-77.1-13.1-115.4c-1.1-8-2.2-16.1-3.4-24.1
					c0,3.3,0,6.6,0,9.9c5-28.4,9.7-56.8,14.3-85.2c8-49.3,15.8-98.8,21.3-148.4c1.9-16.8,4.5-34.4,1.8-51.3
					c-1.6-9.9-13.9-15.4-22.8-13C2219.1,849.2,2215.1,859.1,2216.6,869.1c0.1,0.4-0.5-6.2-0.4-2.4c0,1.1,0.1,2.1,0.1,3.2
					c0.1,2.5,0,5.1-0.1,7.6c-0.3,6.8-0.8,13.5-1.5,20.3c-0.8,8.9-1.9,17.7-2.9,26.6c-0.6,4.8-1.2,9.6-1.8,14.4
					c-0.2,1.2-0.3,2.4-0.5,3.6c-0.1,0.8-0.2,1.6-0.3,2.4c0,0.1,0.6-4,0.3-1.9c-0.4,2.7-0.7,5.3-1.1,8
					c-5.9,42.7-12.7,85.4-19.8,127.9c-2.4,14.5-4.8,28.9-7.3,43.3c-1.3,7.7-3.1,15.1-2,22.9c0.5,3.7,1.1,7.3,1.6,11
					c0.4,3.1,0.9,6.2,1.3,9.2c0.3,1.9,0.5,3.8,0.8,5.7c0.4,3.2-0.6-4.5-0.2-1.2c0.2,1.1,0.3,2.3,0.5,3.4c2.8,21,5.3,42,7.5,63
					c4.5,42.3,9.5,85.9,5.3,128.4c-0.3,3.1,0.8-4.6,0.2-1.7c-0.2,0.9-0.3,1.8-0.4,2.6c-0.3,1.5-0.6,3-1,4.4
					c-2.4,9.4,3.1,20.6,13,22.8c9.9,2.3,19.9-3,22.8-13c38.3-130.7,51.6-268.8,38.9-404.4c-3.7-39-9.4-77.8-17.1-116.1
					c-2-9.8-13.7-15.5-22.8-13C2219.4,849.1,2214.7,859.2,2216.6,869.1z"></path>
          </g>
          <g>
            <path d="M1704.5,1879.3c0,0,68.1,37.4,239.4-53.8c-160,159.2-370.7,267.6-605.7,298.7v-49.4
					C1338.1,2074.9,1615.4,1967.2,1704.5,1879.3z"></path>
            <path d="M1695.1,1895.4c12.7,6.9,28.4,8.8,42.5,9.8c37.9,2.6,76.9-6.4,112.6-18.3c35.6-11.9,69.9-27.6,103-45.2
					c-7.5-9.7-15-19.4-22.5-29.2c-62.6,62.2-129,113.7-204.9,158.6c-77,45.5-155.3,79.3-241.1,103.8c-24,6.9-48.3,12.9-72.8,18.1
					c-12.7,2.7-25.4,5.1-38.1,7.3c-6.1,1-12.1,2-18.2,3c-3.4,0.5-6.8,1-10.2,1.5c-1.4,0.2-2.7,0.4-4.1,0.6c-0.5,0.1-5.9,0.8-3.2,0.5
					c6.2,6.2,12.4,12.4,18.6,18.6c0-16.5,0-32.9,0-49.4c-4.5,6-9.1,11.9-13.6,17.9c34.9-13.6,69.4-28.4,103.6-43.6
					c63.7-28.3,126.9-58.5,186.5-94.7c29.7-18,59.5-37.7,84.4-62.1c7.2-7,7-19.2,0-26.3c-7.2-7.2-19.1-7-26.3,0
					c-4.7,4.6-9.6,9-14.7,13.3c-2.4,2-4.9,4-7.3,6c-1.4,1.1-4.3,3.3-1.1,0.8c-1.7,1.3-3.3,2.5-5,3.8c-12.6,9.4-25.7,18.1-39.1,26.4
					c-29.8,18.6-60.6,35.4-91.9,51.3c-30.7,15.6-61.9,30.4-93.4,44.5c-13.6,6.1-27.2,12.1-40.9,18c-3,1.3-5.9,2.6-8.9,3.8
					c-1.5,0.6-3,1.3-4.5,1.9c-0.7,0.3-1.3,0.6-2,0.8c-3,1.3,3.2-1.3,1-0.4c-5.2,2.2-10.4,4.4-15.6,6.5c-11.6,4.8-23.2,9.6-35,14.1
					c-7.7,3-13.6,9.1-13.6,17.9c0,16.5,0,32.9,0,49.4c0,9.1,8.6,19.9,18.6,18.6c92.1-12.3,182.2-35.7,268.1-71.1
					c83.5-34.5,162.6-78.9,235-133.2c40.8-30.6,79.6-63.9,115.8-99.9c15.3-15.1-4.1-38.9-22.5-29.2c-47.8,25.4-96.4,46.8-150.9,56
					c-2,0.3-4,0.6-6,0.9c-2.1,0.3-3.7,1.7,0.3,0c-0.8,0.3-2,0.2-2.8,0.3c-4,0.5-8.1,0.9-12.2,1.1c-6.9,0.5-13.8,0.6-20.7,0.3
					c-2.7-0.1-5.5-0.3-8.2-0.5c-1.1-0.1-2.3-0.2-3.4-0.3c-5.1-0.5,4.4,0.8,0.6,0.1c-3.9-0.7-7.7-1.3-11.5-2.3
					c-2.6-0.7-5-1.6-7.6-2.5c-2.7-0.9,5.9,2.6,2.3,1c-0.2-0.1-0.4-0.2-0.6-0.3c-8.8-4.8-20.2-2.2-25.4,6.7
					C1683.5,1878.4,1686.3,1890.5,1695.1,1895.4z"></path>
          </g>
          <g>
            <path d="M1718.3,879.3c0,0,227.3,294.6,225.6,346.6c0,0-58.7,215.4-241.9,388.6c0,0-326.7-27.2-398.5-94.1l2.5-464.3
					C1375.3,1064.6,1718.3,879.3,1718.3,879.3z"></path>
            <path d="M1702.3,888.6c20.8,27,41.2,54.2,61.3,81.7c38.4,52.2,76.3,104.9,111.4,159.4c14.4,22.3,28.5,45,40.4,68.8
					c1.1,2.3,2.2,4.5,3.3,6.8c0.5,1,0.9,2,1.4,3.1c1.3,2.9,1.2,3.1,0-0.2c1.4,3.8,3,7.4,4.1,11.3c0.4,1.5,0.8,2.9,1.1,4.4
					c0.1,0.7,0.2,1.4,0.4,2c0.7,2.8-0.3-6.1-0.3-2.3c0,5.2,1.8-5.5,0.4-1.7c-4.7,13.1-8.5,26.5-13.3,39.6
					c-2.2,5.8-4.4,11.6-6.7,17.3c-1.3,3.2-2.6,6.4-3.9,9.6c-0.7,1.6-1.3,3.2-2,4.7c-0.2,0.4-1.7,4-0.4,1c1.2-2.9-0.5,1-0.7,1.6
					c-6.7,15.8-13.9,31.3-21.5,46.7c-19,38.4-40.4,75.7-64.2,111.3c-28.7,42.9-58.6,80.6-94.8,118.4c-9.5,10-19.3,19.7-29.3,29.1
					c4.4-1.8,8.8-3.6,13.1-5.4c-11-0.9-22-2-33-3.2c-12-1.3-23.9-2.6-35.8-4c-7.1-0.9-14.3-1.7-21.4-2.7c-3.7-0.5-7.4-1-11.1-1.5
					c-1.1-0.1-3.6-0.4,1.3,0.2c-1-0.1-2-0.3-3-0.4c-2.2-0.3-4.5-0.6-6.7-0.9c-68.8-9.6-138.3-20.9-204.6-42.1
					c-8.2-2.6-16.3-5.4-24.3-8.5c-1.7-0.7-3.4-1.3-5.1-2c-1.4-0.6-8.5-2.8-2.5-1c-3.5-1.1-7-3.1-10.3-4.7c-6-2.9-11.9-6-17.6-9.6
					c-2.6-1.6-5.1-3.4-7.6-5.2c-2.5-1.8,1.5,0.2,1.6,1.2c0-0.2-1.7-1.3-1.8-1.5c-1.1-1-2.3-1.9-3.4-2.9c1.8,4.4,3.6,8.8,5.4,13.1
					c0.1-15.4,0.2-30.8,0.2-46.2c0.2-37,0.4-74,0.6-111c0.2-44.6,0.5-89.1,0.7-133.7c0.2-38.7,0.4-77.4,0.6-116.1
					c0.1-18.7,1.3-37.8,0.3-56.4c0-0.3,0-0.5,0-0.8c-6.2,6.2-12.4,12.4-18.6,18.6c10.7,1.2,22-1.1,32.4-3.3
					c13.4-2.9,26.6-7.1,39.6-11.6c36.2-12.5,71.4-27.7,106.3-43.4c67.8-30.5,134.4-63.8,200.3-98.2c14.4-7.5,28.9-15.1,43.2-22.8
					c8.8-4.8,11.6-17,6.7-25.4c-5.2-8.9-16.5-11.4-25.4-6.7c-39.4,21.3-79.3,41.8-119.4,61.8c-35.9,17.9-72,35.5-108.4,52.2
					c-18.1,8.3-36.2,16.3-54.5,24.1c5.2-2.2-1.4,0.6-2.4,1c-2.3,0.9-4.5,1.9-6.8,2.8c-4.4,1.8-8.8,3.6-13.3,5.4
					c-8,3.2-16.1,6.3-24.2,9.3c-15.1,5.5-30.5,10.7-46.1,14.6c-3.2,0.8-6.4,1.5-9.7,2.1c-1.4,0.3-2.7,0.5-4.1,0.7
					c-0.7,0.1-1.3,0.2-2,0.3c-4.1,0.7,4.7-0.4,1.8-0.2c-4.6,0.3-9.1,0.8-13.8,0.3c-10-1.2-18.5,9.4-18.6,18.6
					c-0.2,35.2-0.4,70.4-0.6,105.6c-0.4,68.7-0.7,137.4-1.1,206.1c-0.3,48.3-0.5,96.6-0.8,144.9c0,4.1-0.5,8.7,0.6,12.6
					c2.4,8.8,12.5,15,19.6,19.8c5.5,3.7,11.2,7,17.1,10c31.4,15.9,65.8,26,99.8,34.5c72.9,18.2,147.7,28.9,222.3,37.5
					c18.4,2.1,36.9,4.4,55.4,5.7c3.4,0.2,6,0,9.5-1.4c7.6-3.2,14.3-11.7,20.1-17.6c5.6-5.6,11.2-11.2,16.6-17
					c20.7-21.7,40.2-44.5,58.6-68.2c57.1-73.7,103.5-155.2,137.8-241.9c6.9-17.6,13.5-35.4,18.8-53.5c4.9-16.7-5.2-36-12.2-50.6
					c-13.1-27-29.4-52.6-45.7-77.8c-20.2-31.1-41.3-61.6-62.8-91.8c-32.7-45.9-66.2-91.2-100.4-135.9c-1.8-2.4-3.7-4.8-5.5-7.2
					c-6.1-7.9-16-12.2-25.4-6.7C1701.1,867.8,1696.1,880.7,1702.3,888.6z"></path>
          </g>
          <g>
            <path d="M939.6,1985.6c0,0.1,0,0.1,0,0.1c-143.6,12.4-349-64.4-349-64.4c-220.3-190.6-235.2-334.2-235.2-334.2
					c49.6-57.7,175.8-116.9,175.8-116.9c49.5,88.5,371.3,240.7,371.3,240.7C900,1759.8,938.4,1979,939.6,1985.6z"></path>
            <path d="M921.7,1990.5c0,0,0,0.1,0,0.1c6-7.8,11.9-15.7,17.9-23.5c-29.4,2.5-59.1,1.3-88.4-1.6c-3.9-0.4-7.7-0.8-11.6-1.3
					c-1.8-0.2-3.6-0.4-5.3-0.6c-0.9-0.1-1.8-0.2-2.7-0.3c-0.3,0-3.9-0.5-2-0.3c2,0.3-0.9-0.1-1.1-0.2c-0.9-0.1-1.8-0.2-2.7-0.4
					c-2.1-0.3-4.1-0.6-6.2-0.9c-3.8-0.6-7.7-1.2-11.5-1.8c-15.1-2.5-30.2-5.4-45.2-8.6c-47.5-10.1-94.4-23.1-140.4-38.4
					c-9-3-18.1-6-27-9.4c2.7,1.6,5.5,3.2,8.2,4.8c-37.6-32.6-73.4-67.2-106.2-104.7c-7.1-8.1-14-16.2-20.7-24.5
					c-2.9-3.6-5.8-7.2-8.7-10.9c-0.7-0.9-4.4-5.6-2.3-2.9c-1.7-2.2-3.3-4.4-5-6.6c-10.3-13.8-20.2-27.9-29.5-42.4
					c-14.4-22.6-27.5-46.1-38.4-70.6c-0.5-1.1-1-2.3-1.5-3.4c-2.1-4.7,0.9,2.2-0.1-0.2c-0.9-2.3-1.9-4.5-2.8-6.8
					c-1.7-4.3-3.3-8.5-4.8-12.9c-2.3-6.6-4.5-13.4-6.3-20.2c-1.3-4.8-2.5-9.6-3.4-14.5c-0.2-1.3-0.4-2.6-0.7-3.9
					c-0.5-2.8,0.8,6.5,0.5,3.5c-1.8,4.4-3.6,8.8-5.4,13.1c10.8-12.5,23.3-23.4,36.3-33.5c-3,2.3,2-1.5,2.7-2
					c1.8-1.3,3.5-2.6,5.3-3.9c3.6-2.6,7.2-5.2,10.8-7.7c7.5-5.2,15.2-10.2,22.9-15.1c25.2-15.9,51.4-30.5,78-44
					c5.3-2.7,10.6-5.4,16-7.9c-8.5-2.2-16.9-4.4-25.4-6.7c13.8,24.4,36.6,43.8,58.3,61c29.9,23.6,61.7,44.8,94.1,64.7
					c60,36.9,122.2,70.3,185.2,101.8c13.4,6.7,26.8,13.4,40.4,19.8c-3.1-5.3-6.1-10.7-9.2-16c-0.7,15.1,1.1,30.5,2.7,45.5
					c2.5,23.5,5.6,47,9,70.4c6.3,44.2,13.3,88.3,20.8,132.3C918.1,1969.7,919.9,1980.1,921.7,1990.5c1.7,9.9,13.8,15.4,22.8,13
					c10.4-2.9,14.7-12.9,13-22.8c-4.8-27.2-9.3-54.4-13.7-81.7c-3.8-23.6-7.5-47.3-10.9-70.9c-0.9-5.9-1.7-11.9-2.5-17.8
					c-0.4-2.7-0.7-5.4-1.1-8.1c-0.3-2.1-0.6-4.8-0.1-1.1c-0.2-1.5-0.4-3.1-0.6-4.6c-1.4-11-2.8-22-4.1-33.1
					c-1.9-17.3-4.2-35-3.4-52.4c0.3-6-3.6-13.4-9.2-16c-37.5-17.8-74.5-36.8-111.1-56.4c-66.5-35.5-133.1-72.9-193.4-118.3
					c-1.8-1.3-3.5-2.7-5.3-4c-2.1-1.6,3.6,2.9,0.4,0.3c-0.9-0.7-1.9-1.5-2.8-2.2c-3.6-2.9-7.2-5.8-10.7-8.7
					c-6.4-5.3-12.6-10.9-18.6-16.6c-5.2-5.1-10.3-10.3-14.9-15.9c-0.5-0.5-0.9-1.1-1.3-1.6c-2.5-3-0.6,0.6,0.6,0.8
					c-0.7-0.1-2.4-3.3-2.8-3.9c-1.7-2.4-3.3-4.9-4.7-7.5c-5.3-9.3-16.4-10.9-25.4-6.7c-20.7,9.7-40.9,20.6-60.7,31.9
					c-37,21.1-74,44.3-105,73.6c-7.7,7.3-18.8,16.4-19.2,27.5c-0.1,2.1,0.5,4.3,0.9,6.4c0.5,3.5,1.2,7,2,10.4
					c3.7,16.4,9.4,32.3,15.9,47.8c29,69.6,73.8,131.6,124,187.3c18.3,20.4,37.6,39.9,57.5,58.8c11.1,10.5,22.4,20.8,33.9,30.9
					c5.1,4.5,9.9,8.7,16.3,11c20.1,7.4,40.5,13.9,61,20.1c39.3,11.9,79.1,22.1,119.3,30.1c46.1,9.1,93.3,15.8,140.4,15.6
					c10.6,0,21.1-0.5,31.6-1.3c12.9-1.1,20-10.9,17.9-23.5c0,0,0-0.1,0-0.1c-1.6-9.9-13.9-15.4-22.8-13
					C924.2,1970.6,920,1980.6,921.7,1990.5z"></path>
          </g>
          <g>
            <path d="M939.6,391.6c0,0-37.1,344.1-27.2,401c0,0-366.4,187-381.2,209.2c0,0-174.2-142.3-199.7-267.3
					c0,0,95.8-303.3,269.2-394.9C600.6,339.6,803.5,337.2,939.6,391.6z"></path>
            <path d="M921,391.6c-4.3,40.1-8.3,80.3-12,120.4c-6.5,69.5-12.8,139.2-15.8,209c-1.1,25.2-2.9,51.5,1.3,76.5
					c2.8-7,5.7-14,8.5-21c-42.1,21.5-84.1,43.3-126.1,65.2c-68.3,35.7-136.7,71.4-203.4,110c-12.1,7-24.3,14.1-36,21.8
					c-8.2,5.3-16.8,10.8-22.4,18.9c9.7-1.3,19.4-2.5,29.2-3.8c-20.8-17-40.4-35.6-59.4-54.5c-18.7-18.6-36.6-37.9-53.6-58.1
					c-4.5-5.4-8.9-10.8-13.2-16.2c-1.2-1.5-2.3-3-3.5-4.5c1.9,2.5-0.4-0.5-1.1-1.4c-2.3-3-4.6-6.1-6.8-9.1
					c-8.4-11.6-16.5-23.4-23.9-35.7c-8-13.2-15.1-26.8-21.4-40.9c-0.1-0.3-1.1-2.7-0.3-0.6c0.9,2.1-0.4-0.9-0.5-1.3
					c-0.7-1.9-1.5-3.7-2.2-5.6c-1.2-3.2-2.4-6.5-3.4-9.7c-2.3-7-4.2-14.2-5.7-21.4c0,3.3,0,6.6,0,9.9c3.2-10.2,6.9-20.3,10.6-30.3
					c4.3-11.5,8.7-22.8,13.3-34.2c1.2-3.1,2.5-6.1,3.8-9.2c0.4-1,0.8-2,1.3-3c-0.1,0.3-1.8,4.3-0.6,1.4c0.9-2.1,1.8-4.1,2.6-6.2
					c3.2-7.4,6.5-14.8,9.8-22.2c15.5-34,32.6-67.4,51.6-99.6c10.4-17.5,21.3-34.7,33-51.4c2.7-3.9,5.5-7.8,8.3-11.6
					c1.5-2,3-4,4.5-6.1c0.9-1.2,1.8-2.4,2.7-3.6c0.3-0.4,3.4-4.5,0.8-1c6.3-8.1,12.8-16.1,19.5-23.8c14.8-17.1,30.7-33.3,47.9-47.9
					c2-1.7,4-3.4,6.1-5.1c1.1-0.9,2.2-1.8,3.4-2.7c0.8-0.6,4.3-3.3,0.8-0.6c4.3-3.3,8.7-6.5,13.2-9.6c9-6.2,18.4-11.9,28.1-17.1
					c-3.1,0.8-6.2,1.7-9.4,2.5c25.3-0.3,50.7,0.8,75.9,2.4c26.1,1.6,52.1,3.8,78,7c3.4,0.4,6.9,0.8,10.3,1.3
					c1.7,0.2,3.5,0.4,5.2,0.7c-4.1-0.6,1.7,0.2,2,0.3c7.1,1,14.2,2,21.2,3.2c15,2.4,29.9,5.1,44.8,8.3c32.8,7,65.3,15.9,96.5,28.3
					c9,3.6,20.8-3.9,22.8-13c2.4-10.7-3.3-19-13-22.8c-52.5-20.9-108.5-32.3-164.2-40c-46.9-6.5-94.2-10.5-141.5-12.1
					c-11.4-0.4-22.8-0.6-34.2-0.6c-15.3,0-29.8,11.6-42,20c-39.9,27.6-73.1,63-102.5,101.3c-52.2,68.1-91.4,145.7-123.6,225
					c-7.8,19.2-15.2,38.6-21.7,58.3c-4,12.2,1.2,25.5,5.2,37.2c8.1,24,19.6,46.8,32.9,68.3c26.5,42.9,59.6,81.8,94.6,117.9
					c21.3,22,43.6,43.2,67.1,62.9c1.2,1,2.3,2,3.5,2.9c9.7,7.9,21.9,6.8,29.2-3.8c-1.2,1.8-4,4.1-1,1.7c1.8-1.5,6.2-4.1-0.2,0
					c3.2-2,6.2-4.5,9.4-6.6c9.8-6.4,19.8-12.4,29.9-18.3c30.3-17.7,61.1-34.5,91.9-51.2c66.1-35.7,132.8-70.5,199.6-105
					c15-7.7,30-15.4,45-23.1c7.8-4,9.9-13.1,8.5-21c-0.9-5.4,0.4,5,0-0.1c-0.2-2.1-0.4-4.1-0.5-6.2c-0.3-4.6-0.4-9.2-0.5-13.8
					c-0.2-12.5,0.2-25,0.6-37.5c1.2-33.1,3.5-66.2,6-99.3c5-65.5,11.1-131,17.8-196.3c1.5-14.3,2.9-28.6,4.5-42.9
					c1-9.7-9.3-19-18.6-18.6C928.7,373.6,922.2,381.3,921,391.6z"></path>
          </g>
          <g>
            <path d="M1964.4,413.9c-86.6-7.4-230.2,61.9-230.2,61.9c-52-108.9-396.6-250-396.6-250s18.7-172.9,40.5-192.9
					c209.9,36.1,398.7,134,546.9,274.3l0,0C1943.3,324.1,1964.4,413.9,1964.4,413.9z"></path>
            <path d="M1964.4,395.3c-40.3-3.3-81.8,6.8-120.1,18.3c-34.3,10.3-67.7,23.2-100.5,37.5c-6.4,2.8-12.7,5.6-19,8.6
					c8.5,2.2,16.9,4.4,25.4,6.7c-13.5-27.9-38.1-50.5-61.8-69.8c-31.7-25.7-65.9-47.9-101-68.5c-63.6-37.4-130.1-69.9-197.5-99.9
					c-15.7-7-31.4-13.8-47.3-20.4c4.5,6,9.1,11.9,13.6,17.9c0.6-5.7,1.3-11.4,2-17c0.7-6,1.5-12.1,2.3-18.1c0.2-1.8,0.5-3.5,0.7-5.3
					c0.5-4-0.6,4.6-0.1,0.6c0.1-0.7,0.2-1.5,0.3-2.2c0.6-4.3,1.2-8.6,1.8-12.9c4.8-33.4,9.9-67,18.7-99.6c1.9-6.9,4.1-13.7,6.6-20.4
					c0.5-1.5,1.5-1.6-1,2.3c0.4-0.7,0.7-1.6,1-2.3c0.5-1.1,1.1-2.1,1.7-3.2c0.4-0.8,1.7-2,1.8-2.9c-0.7,3.2-3.4,3.8-0.7,1.3
					c-6,1.6-12,3.2-18.1,4.8c40.3,7,80.3,16.2,119.5,27.8c19.3,5.7,38.3,11.9,57.2,18.7c9.6,3.4,19.1,7,28.5,10.7
					c4.4,1.7,8.8,3.5,13.2,5.3c2.5,1,5,2.1,7.5,3.1c2,0.8,2,0.8,4.9,2.1c73.3,31.3,143,71.1,207.4,118c18,13.1,32.3,24.3,49.8,38.9
					c17.4,14.5,34.3,29.5,50.7,45c0-8.8,0-17.5,0-26.3c0,0,0,0,0,0c-7,7-7.3,19.3,0,26.3c0.7,0.7,1.3,1.5,2,2.1
					c2.1,1.9-2.5-3.8-0.9-1.2c1.1,1.9,2.4,3.7,3.5,5.6c1.2,2.2,2.4,4.5,3.5,6.8c0.5,1.1,1,2.2,1.5,3.2c0.3,0.7,0.7,1.5,1,2.2
					c-1.1-2.5-1.2-2.8-0.4-0.9c4.5,11.5,8.5,23.1,12.1,34.8c4.6,15.1,8.8,30.3,12.5,45.7c2.3,9.8,13.4,15.6,22.8,13
					c10-2.7,15.3-13,13-22.8c-3.8-16.2-8.3-32.4-13.3-48.3c-4.1-13.2-8.7-26.3-14.1-39c-4.2-9.8-9-20.1-16.7-27.5
					c0,8.8,0,17.5,0,26.3c0,0,0,0,0,0c6.9-6.9,7.3-19.4,0-26.3c-50.5-47.7-105.6-90.7-164.2-128c-59.2-37.6-122.1-69.2-187.5-94.6
					C1521.2,46,1452.4,25.6,1383.1,15c-23.6-3.6-31.4,26.2-36.3,43.8c-5.7,20.2-9.5,40.9-13,61.5c-3.8,22.2-7,44.4-9.9,66.7
					c-1.6,12.3-3.6,24.6-4.5,37c0,0.6-0.1,1.3-0.2,1.9c-0.9,8.7,6.6,15,13.6,17.9c0.8,0.3,1.6,0.7,2.4,1c1,0.4,1.9,0.8,2.9,1.2
					c0.6,0.2,1.1,0.5,1.7,0.7c3,1.3-5.6-2.4-1.7-0.7c8.6,3.6,17.1,7.3,25.6,11.1c28.2,12.4,56.2,25.4,83.9,38.9
					c71.4,34.7,143.1,72.3,206.4,120.5c0.8,0.6,1.7,1.3,2.5,1.9c-4.3-3.3,0.3,0.2,1.1,0.9c1.9,1.5,3.8,3,5.7,4.6
					c3.7,3,7.3,6,10.9,9.1c6.8,5.9,13.4,12.1,19.6,18.6c2.9,3.1,5.8,6.2,8.6,9.4c1.3,1.5,2.5,3,3.7,4.5c0.4,0.5,2.4,3,0.3,0.4
					c-2.2-2.8,0.4,0.6,0.8,1.1c4.3,5.8,8.1,11.9,11.2,18.3c4.6,9.5,17,10.7,25.4,6.7c4.8-2.3,9.7-4.5,14.6-6.7
					c2.4-1.1,4.9-2.2,7.3-3.2c1.4-0.6,2.8-1.2,4.1-1.8c0.6-0.3,1.3-0.5,1.9-0.8c3.4-1.5-3.7,1.5-0.4,0.2c7.3-3,14.6-6,22-8.9
					c36.4-14.2,73.9-26.7,112.3-34c5.2-1,10.4-1.8,15.7-2.6c3.6-0.5,0.4-0.1-0.3,0c1.5-0.2,3.1-0.4,4.6-0.6c2.8-0.3,5.5-0.6,8.3-0.8
					c10.2-0.8,20.4-1,30.6-0.2c9.7,0.8,19-9.1,18.6-18.6C1982.5,403.2,1974.8,396.2,1964.4,395.3z"></path>
          </g>
        </g>
        <g>
          <path d="M2093.1,547.3c45.7,77.7,80.5,158.4,105,245.1c7.1,25.1,13.2,50.4,18.4,75.9c2,9.8,13.6,15.5,22.8,13
				c10.2-2.8,15-13,13-22.8c-18.6-90.8-49.1-178.9-90.3-261.9c-11.5-23.1-23.8-45.8-36.9-68c-5.1-8.6-16.7-11.7-25.4-6.7
				C2091.1,527,2088,538.7,2093.1,547.3L2093.1,547.3z"></path>
          <path d="M173,899.7c26.7-153.7,87.4-299.9,177.8-427.1c89.5-125.8,207.5-231,342.3-306C841.9,83.7,1010.3,39,1180.5,36.3
				c175.2-2.8,349.9,38.6,504.6,121c148.9,79.3,278,194.9,372.8,334.6c12.3,18.1,23.9,36.6,35.1,55.4c12.2,20.5,44.3,1.9,32.1-18.7
				c-90.3-152.1-217.5-281.4-368.7-373.4C1604.5,62.7,1430.5,9.6,1253.1,0.4c-178.8-9.2-358.5,26.7-520,103.8
				c-145.9,69.7-276,173.2-376.7,299.7C256.9,529,185.1,675.2,149.1,831c-4.5,19.5-8.4,39.1-11.8,58.8c-1.7,9.9,2.6,20,13,22.8
				C159.1,915.1,171.3,909.6,173,899.7L173,899.7z"></path>
          <path d="M221.7,1434.1c-48.5-133.2-69.4-272.8-62-414.2c2.1-40.8,6.5-80.4,13.3-120.2c1.6-9.5-2.5-20.5-13-22.8
				c-9-2-21.1,2.7-22.8,13c-25.1,146.6-20.6,297.7,14.7,442.4c9.2,37.9,20.6,75.2,34,111.8c3.4,9.4,12.6,15.8,22.8,13
				C217.8,1454.5,225.2,1443.6,221.7,1434.1L221.7,1434.1z"></path>
          <path d="M1930.7,1812.4c-102.7,101.9-226.2,182.7-361.5,234.2c-143.6,54.7-298.2,76.8-451.4,65.3c-128-9.6-254.5-43.3-370.1-99.1
				c-113.4-54.7-216.3-129.7-303.1-220.8c-86.8-91.1-157.2-198.2-205.9-314.3c-6-14.3-11.6-28.8-17-43.4c-3.5-9.4-12.6-15.8-22.8-13
				c-9.1,2.5-16.4,13.4-13,22.8c45.6,124,113.3,238.8,200,338.4c84.9,97.6,187.9,180,301.9,241.3
				c118.2,63.6,247.5,104.1,380.6,120.3c154.5,18.8,313.4,3.7,461.4-44.4c142.9-46.4,275.1-122.9,386.9-223.2
				c13.7-12.3,27.1-25,40.2-38C1974,1821.8,1947.7,1795.6,1930.7,1812.4L1930.7,1812.4z"></path>
          <path d="M2216.6,869.1c28.3,140.4,27.3,288.2-3.2,428.1c-27.8,127.2-77.8,245.2-149.9,353.6c-38.9,58.5-82.4,111.4-132.8,161.6
				c-7.1,7.1-7.1,19.2,0,26.3c7.1,7.1,19.1,7.1,26.3,0c92-91.7,167.6-199.9,221.2-318.2c58.2-128.8,90.8-268.1,95.5-409.4
				c2.8-84.4-4.5-169.1-21.2-251.9c-2-9.8-13.7-15.5-22.8-13C2219.4,849.1,2214.7,859.2,2216.6,869.1L2216.6,869.1z"></path>
          <path d="M582.7,197.1c-7,48.1-10.5,99.7,0,147.5c1.7,7.8,10.1,13.7,17.9,13.6c25.3-0.3,50.7,0.8,75.9,2.4c26.1,1.6,52.1,3.8,78,7
				c3.4,0.4,6.9,0.8,10.3,1.3c1.7,0.2,3.5,0.4,5.2,0.7c-4.1-0.6,1.7,0.2,2,0.3c7.1,1,14.2,2,21.2,3.2c15,2.4,29.9,5.1,44.8,8.3
				c32.8,7,65.3,15.9,96.5,28.3c-4.5-6-9.1-11.9-13.6-17.9c-4.3,40.1-8.3,80.3-12,120.4c-6.5,69.5-12.8,139.2-15.8,209
				c-1.1,25.2-2.9,51.5,1.3,76.5c2.8-7,5.7-14,8.5-21c-42.1,21.5-84.1,43.3-126.1,65.2c-68.3,35.7-136.7,71.4-203.4,110
				c-12.1,7-24.3,14.1-36,21.8c-8.2,5.3-16.8,10.8-22.4,18.9c9.7-1.3,19.4-2.5,29.2-3.8c-20.8-17-40.4-35.6-59.4-54.5
				c-18.7-18.6-36.6-37.9-53.6-58.1c-4.5-5.4-8.9-10.8-13.2-16.2c-1.2-1.5-2.3-3-3.5-4.5c1.9,2.5-0.4-0.5-1.1-1.4
				c-2.3-3-4.6-6.1-6.8-9.1c-8.4-11.6-16.5-23.4-23.9-35.7c-8-13.2-15.1-26.8-21.4-40.9c-0.1-0.3-1.1-2.7-0.3-0.6
				c0.9,2.1-0.4-0.9-0.5-1.3c-0.7-1.9-1.5-3.7-2.2-5.6c-1.2-3.2-2.4-6.5-3.4-9.7c-2.3-7-4.2-14.2-5.7-21.4c0,3.3,0,6.6,0,9.9
				c3.2-10.2,6.9-20.3,10.6-30.3c4.3-11.5,8.7-22.8,13.3-34.2c1.2-3.1,2.5-6.1,3.8-9.2c0.4-1,0.8-2,1.3-3c-0.1,0.3-1.8,4.3-0.6,1.4
				c0.9-2.1,1.8-4.1,2.6-6.2c3.2-7.4,6.5-14.8,9.8-22.2c15.5-34,32.6-67.4,51.6-99.6c10.4-17.5,21.3-34.7,33-51.4
				c2.7-3.9,5.5-7.8,8.3-11.6c1.5-2,3-4,4.5-6.1c0.9-1.2,1.8-2.4,2.7-3.6c0.3-0.4,3.4-4.5,0.8-1c6.3-8.1,12.8-16.1,19.5-23.8
				c14.8-17.1,30.7-33.3,47.9-47.9c2-1.7,4-3.4,6.1-5.1c1.1-0.9,2.2-1.8,3.4-2.7c0.8-0.6,4.3-3.3,0.8-0.6c4.3-3.3,8.7-6.5,13.2-9.6
				c9-6.2,18.4-11.9,28.1-17.1c8.8-4.7,11.6-17,6.7-25.4c-5.2-9-16.5-11.4-25.4-6.7c-61.3,32.6-109.2,86.3-148.5,142.5
				C406.3,518.2,376.5,574.9,351,633c-9.4,21.5-18.3,43.2-26.5,65.2c-3.7,9.9-7.8,20-10.6,30.2c-3,10.8,2.8,24.9,6.3,35.2
				c6,17.7,13.9,34.8,23,51.1c18.4,33.1,41.5,63.7,66,92.4c32.5,38.1,68.4,74,106.9,106.2c0.6,0.5,1.3,1.1,1.9,1.6
				c9.7,7.9,21.9,6.8,29.2-3.8c-1.2,1.8-4,4.1-1,1.7c1.8-1.5,6.2-4.1-0.2,0c3.2-2,6.2-4.5,9.4-6.6c9.8-6.4,19.8-12.4,29.9-18.3
				c30.3-17.7,61.1-34.5,91.9-51.2c66.1-35.7,132.8-70.5,199.6-105c15-7.7,30-15.4,45-23.1c7.8-4,9.9-13.1,8.5-21
				c-0.9-5.4,0.4,5,0-0.1c-0.2-2.1-0.4-4.1-0.5-6.2c-0.3-4.6-0.4-9.2-0.5-13.8c-0.2-12.5,0.2-25,0.6-37.5c1.2-33.1,3.5-66.2,6-99.3
				c5-65.5,11.1-131,17.8-196.3c1.5-14.3,2.9-28.6,4.5-42.9c0.9-8.7-6.6-15.1-13.6-17.9c-56.8-22.6-117.5-34-177.9-41.8
				c-46.3-6-92.9-9.5-139.5-10.6c-8.8-0.2-17.7-0.4-26.5-0.3c6,4.5,11.9,9.1,17.9,13.6c-0.8-3.6-1.5-7.1-2-10.7
				c-0.1-0.6-0.8-5.6-0.5-3.5c0.2,1.9-0.4-3.9-0.5-4.5c-0.7-7.2-1.2-14.4-1.4-21.6c-0.5-14.6-0.2-29.3,0.6-43.8
				c0.6-11.4,1.6-22.7,2.8-34c0.4-3.3,0.8-6.6,1.2-9.9c0.6-4.8-0.8,5.4-0.1,0.5c1.4-9.6-2.4-20.4-13-22.8
				C596.8,182.1,584.2,186.8,582.7,197.1L582.7,197.1z"></path>
          <path d="M171.5,907.8c0-0.9,0.1-1.9,0.2-2.8c-0.2,4.9,0.3-1.2,0.8-3.1c0.5-2,1-4,1.6-5.9c0.5-1.6,1-3.1,1.6-4.6
				c0.3-0.9,0.7-1.9,1.1-2.8c1.6-4.1-1,2.2-0.4,0.9c4.5-9.4,9.4-18.4,15.4-27c0.8-1.1,1.5-2.2,2.3-3.2c0.8-1,4.2-6.2,0.9-1.2
				c1.9-2.9,4.4-5.6,6.7-8.2c5.2-6.1,10.7-11.8,16.4-17.4c6.5-6.3,13.2-12.3,20.2-18c2.1-1.7,4.1-3.4,6.2-5c0.9-0.7,1.7-1.4,2.6-2
				c-2.7,2.1,0.2-0.2,0.9-0.7c4.5-3.4,9-6.6,13.6-9.8c25.1-17.5,51.9-32.6,79.4-46.2c9-4.5,11.5-17.2,6.7-25.4
				c-5.4-9.2-16.4-11.1-25.4-6.7c-45.4,22.5-89.8,49.3-126.8,84.3c-20,18.9-38.8,41.1-50.2,66.3c-5.4,12-10.6,25.3-10.6,38.7
				c0,9.7,8.5,19,18.6,18.6C163,925.9,171.5,918.2,171.5,907.8L171.5,907.8z"></path>
          <path d="M513.3,996.9c-7.7,37.4-12.8,75.4-17.2,113.3c-9,76.8-13.2,154.7-7.2,231.9c3.5,44.9,10.2,90.2,24.4,133.1
				c2.8-7,5.7-14,8.5-21c-47.1,22.2-93.5,48.5-134.9,80c-15.9,12.1-31.4,24.8-44.6,39.9c7.5-1,15-1.9,22.5-2.9
				c-4.4-2.9-8.7-5.9-13-8.9c-4.6-3.3-9.2-6.6-13.8-10c-2.7-2-5.3-3.9-8-5.9c-1.5-1.1-3-2.3-4.5-3.4c-0.7-0.5-1.4-1-2-1.6
				c-1.2-0.9,2.9,2.2-0.4-0.3c-27.9-21.8-55.2-45.1-78.2-72.1c-1.6-1.9-3.1-3.7-4.7-5.6c-0.8-0.9-1.5-1.9-2.2-2.8
				c1.5,1.9,1.1,1.5-0.1-0.2c-2.7-3.7-5.3-7.4-7.8-11.2c-2.3-3.6-4.5-7.3-6.4-11.1c-0.9-1.8-1.7-3.7-2.6-5.4c-1-1.9,1.5,1.7,0.6,1.5
				c-0.6-0.1-1.7-4.6-1.9-5.1c-3.2-9.5-12.8-15.7-22.8-13c-9.3,2.5-16.2,13.3-13,22.8c11.8,35.2,39.4,63.9,65.9,88.7
				c24.7,23,51.4,44,78.8,63.7c5.7,4.1,11.4,8.1,17.2,12c6.4,4.2,17.4,3,22.5-2.9c10.8-12.5,23.3-23.4,36.3-33.5c-3,2.3,2-1.5,2.7-2
				c1.8-1.3,3.5-2.6,5.3-3.9c3.6-2.6,7.2-5.2,10.8-7.7c7.5-5.2,15.2-10.2,22.9-15.1c25.2-15.9,51.4-30.5,78-44
				c5.3-2.7,10.6-5.4,16-7.9c7-3.3,10.9-13.7,8.5-21c-5.9-18-10.6-36.5-14.2-55.1c-1.9-9.7-3.5-19.4-4.8-29.2
				c-0.1-0.5-0.6-4.1-0.2-1.8c0.3,2.3-0.2-1.3-0.2-1.8c-0.3-2.6-0.6-5.1-0.9-7.7c-0.6-5.2-1.1-10.3-1.6-15.5
				c-3.8-40.1-4.4-80.6-3.2-120.9c1.1-36.9,3.9-73.8,7.9-110.5c0.9-8.1,1.8-16.1,2.8-24.1c0.5-3.7,0.9-7.3,1.4-11
				c0.2-1.3,0-3.9,0.7-5c-0.1,0.2-0.6,4.6-0.2,1.3c0.2-1.2,0.3-2.4,0.5-3.6c1.7-12.1,3.5-24.2,5.4-36.2c2-12.5,4.1-25,6.7-37.4
				c1.9-9.5-2.7-20.5-13-22.8C526.8,981.9,515.4,986.8,513.3,996.9L513.3,996.9z"></path>
          <path d="M336.9,1587.2c1.8,17.6,7.3,34.9,13.5,51.4c17.3,46.2,42.3,89.2,71.2,129.1c22.1,30.5,46.4,59.5,72.2,86.9
				c15,16,30.6,31.5,46.6,46.5c8.6,8,17.3,16,26.1,23.8c6.1,5.4,12,11.6,19.7,14.6c37.4,14.5,76.7,25.4,115.5,35.4
				c69.2,17.9,141.4,32,213.1,30.7c8.3-0.2,16.6-0.6,24.8-1.3c12.9-1.1,20-10.9,17.9-23.5c-4.5-27.1-9.2-54.1-13.6-81.2
				c-3.8-23.6-7.5-47.2-10.9-70.9c-0.9-5.9-1.7-11.9-2.5-17.8c-0.4-2.9-0.8-5.9-1.2-8.8c-0.1-0.7-0.7-5-0.3-2.2
				c0.4,2.7-0.3-2-0.4-2.8c-1.5-11-2.8-22.1-4.1-33.1c-1.9-17.5-4.3-35.4-3.5-53c0.3-6-3.6-13.4-9.2-16
				c-37.5-17.8-74.5-36.8-111.1-56.4c-66.5-35.5-133.1-72.9-193.4-118.3c-1.8-1.3-3.5-2.7-5.3-4c-2.1-1.6,3.6,2.9,0.4,0.3
				c-0.9-0.7-1.9-1.5-2.8-2.2c-3.6-2.9-7.2-5.8-10.7-8.7c-6.4-5.3-12.6-10.9-18.6-16.6c-5.2-5.1-10.3-10.3-14.9-15.9
				c-0.5-0.5-0.9-1.1-1.3-1.6c-2.5-3-0.6,0.6,0.6,0.8c-0.7-0.1-2.4-3.3-2.8-3.9c-1.7-2.4-3.3-4.9-4.7-7.5
				c-4.9-8.7-16.8-11.7-25.4-6.7c-8.8,5.1-11.6,16.6-6.7,25.4c13.8,24.4,36.6,43.8,58.3,61c29.9,23.6,61.7,44.8,94.1,64.7
				c60,36.9,122.2,70.3,185.2,101.8c13.4,6.7,26.8,13.4,40.4,19.8c-3.1-5.3-6.1-10.7-9.2-16c-0.7,15.1,1.1,30.5,2.7,45.5
				c2.5,23.8,5.7,47.5,9.1,71.1c6.3,44.1,13.3,88.2,20.7,132.1c1.7,10.3,3.6,20.6,5.3,31c6-7.8,11.9-15.7,17.9-23.5
				c-29.4,2.5-59.1,1.3-88.4-1.6c-3.9-0.4-7.7-0.8-11.6-1.3c-1.8-0.2-3.6-0.4-5.3-0.6c-0.9-0.1-1.8-0.2-2.7-0.3
				c-0.3,0-3.9-0.5-2-0.3c2,0.3-0.9-0.1-1.1-0.2c-0.9-0.1-1.8-0.2-2.7-0.4c-2.1-0.3-4.1-0.6-6.2-0.9c-3.8-0.6-7.7-1.2-11.5-1.8
				c-15.1-2.5-30.2-5.4-45.2-8.6c-47.5-10.1-94.4-23.1-140.4-38.4c-9-3-18.1-6-27-9.4c2.7,1.6,5.5,3.2,8.2,4.8
				c-37.6-32.6-73.4-67.2-106.2-104.7c-7.1-8.1-14-16.2-20.7-24.5c-2.9-3.6-5.8-7.2-8.7-10.9c-0.7-0.9-4.4-5.6-2.3-2.9
				c-1.7-2.2-3.3-4.4-5-6.6c-10.3-13.8-20.2-27.9-29.5-42.4c-14.4-22.6-27.5-46.1-38.4-70.6c-0.5-1.1-1-2.3-1.5-3.4
				c-2.1-4.7,0.9,2.2-0.1-0.2c-0.9-2.3-1.9-4.5-2.8-6.8c-1.7-4.3-3.3-8.5-4.8-12.9c-2.3-6.6-4.5-13.4-6.3-20.2
				c-1.3-4.8-2.5-9.6-3.4-14.5c-0.2-1.3-0.4-2.6-0.7-3.9c-0.5-2.8,0.8,6.5,0.5,3.5c-1-9.6-7.8-19-18.6-18.6
				C346.2,1569.1,335.8,1576.9,336.9,1587.2L336.9,1587.2z"></path>
          <path d="M952.7,404.8c-7.3,5.7-3.2,2.5-1.5,1.2c2-1.5,4.1-3,6.2-4.5c7.6-5.5,15.3-10.9,23.1-16.1c26.4-17.8,53.7-34.2,81.6-49.5
				c38.7-21.1,76.6-38.8,115.8-53.4c22.3-8.3,45-15.6,68-21.7c12.2-3.2,24.5-6.1,36.9-8.6c5.6-1.1,11.2-2.1,16.8-3.1
				c3-0.5,5.9-1,8.9-1.4c1.3-0.2,2.6-0.4,4-0.6c-0.1,0,5.9-0.8,3-0.4c5.9-0.8,12.2-0.8,18-2c4.9-1-1.2-1.3-0.6-0.9
				c0.9,0.6,2.2,0.9,3.2,1.3c0.9,0.4,1.8,0.7,2.7,1.1c4.1,1.7-5.2-2.2-0.6-0.3c3.1,1.3,6.1,2.6,9.2,3.9c19.8,8.5,39.5,17.3,59,26.4
				c59,27.4,117.3,56.8,173.1,90.3c14.6,8.8,28.9,17.8,43,27.3c6.6,4.4,13.1,8.9,19.5,13.6c3.1,2.2,6.2,4.5,9.3,6.8c1.3,1,2.7,2,4,3
				c3.3,2.5-2.4-1.9-0.3-0.2c1,0.8,1.9,1.5,2.9,2.3c11,8.7,21.7,17.9,31.6,27.8c4.5,4.5,8.9,9.1,13,14c0.9,1.1,1.9,2.2,2.8,3.4
				c0.4,0.5,0.8,1,1.2,1.5c1.9,2.3-1.2-1.4-1.2-1.5c-0.1,1.4,4.4,6.1,5.3,7.4c2.8,4.2,5.4,8.6,7.6,13.2c-0.8-3.1-1.7-6.2-2.5-9.4
				c0.9,39.7,1.2,79.5,1.2,119.2c0,69.5-0.4,139.3-5.6,208.7c-0.6,8.1-1.3,16.3-2.2,24.4c-0.4,3.5-0.8,7-1.2,10.6
				c-0.2,1.6-1.4,8.4-0.2,1.4c-0.3,1.4-0.4,2.9-0.6,4.3c-1.5,10.1-3.2,20.5-6.8,30c2.8-3.7,5.7-7.4,8.5-11.1
				c-39.4,21.3-79.3,41.8-119.4,61.8c-35.9,17.9-72,35.5-108.4,52.2c-18.1,8.3-36.2,16.3-54.5,24.1c5.2-2.2-1.4,0.6-2.4,1
				c-2.3,0.9-4.5,1.9-6.8,2.8c-4.4,1.8-8.8,3.6-13.3,5.4c-8,3.2-16.1,6.3-24.2,9.3c-15.1,5.5-30.5,10.7-46.1,14.6
				c-3.2,0.8-6.4,1.5-9.7,2.1c-1.4,0.3-2.7,0.5-4.1,0.7c-0.7,0.1-1.3,0.2-2,0.3c-4.1,0.7,4.7-0.4,1.8-0.2c-4.6,0.3-9.1,0.8-13.8,0.3
				c3.1,0.8,6.2,1.7,9.4,2.5c-41.4-23.1-82.4-47-123.1-71.2c-70.6-42-141.4-84.8-207.4-133.7c-3.9-2.9-8-5.6-11.7-8.8
				c4.8,4.2-1.3-1-2.5-2c-1.8-1.4-3.5-2.8-5.2-4.2c-6-4.9-12-9.9-17.7-15.2c-4.6-4.3-9.2-8.7-13.4-13.4c-0.9-1-1.8-2.1-2.7-3.1
				c-3.1-3.6,2.8,4.1,0.3,0.3c-1.2-1.8-2.4-3.6-3.4-5.5c-4.7-8.9-17-11.6-25.4-6.7c-9,5.2-11.4,16.5-6.7,25.4
				c5.4,10.3,14.3,19.2,22.7,27.1c12.6,11.9,26.4,22.5,40.2,33c34.2,25.9,70.2,49.5,106.4,72.6c38.5,24.5,77.4,48.2,116.7,71.5
				c29.6,17.5,59.3,34.8,89.2,51.8c7.3,4.1,14.6,8.3,21.9,12.4c7.7,4.3,16.1,5.1,24.8,4.2c33.6-3.5,66.2-16.5,97.4-28.9
				c43.3-17.3,85.7-36.6,127.7-56.7c38.9-18.6,77.5-37.9,115.8-57.6c21.8-11.2,43.5-22.6,65.1-34.1c1.1-0.6,2.4-1.2,3.5-1.9
				c7.8-4.8,10.1-14.8,12.1-23.2c3.7-16.1,5.5-32.7,7.1-49.1c4.2-43.6,5.5-87.6,6.4-131.4c0.9-45,1-89.9,0.7-134.9
				c-0.2-25.9-0.5-51.8-1-77.7c-0.3-12.3-8-23.2-15.2-32.7c-12.1-16-26.2-30.1-41.4-43.1c-36.7-31.1-77.6-57.1-119.2-81.1
				c-41.2-23.7-83.6-45.4-126.6-65.9c-29.3-14-58.9-27.5-88.8-40.2c-6.3-2.7-12.5-6-19-8c-6.2-1.9-14.7,0.2-21,0.9
				c-10,1.2-19.9,2.5-29.8,4.2c-17.4,2.9-34.7,6.6-51.8,11c-64.4,16.6-126.4,42.6-185.1,73.7c-38,20.1-74.9,42.4-109.9,67.2
				c-6.2,4.4-12.4,9-18.5,13.6c-7.9,6.1-6.5,19.8,0,26.3C934.3,412.6,944.8,410.9,952.7,404.8L952.7,404.8z"></path>
          <path d="M1356.1,225.8c0.6-5.7,1.3-11.4,2-17c0.8-6.4,1.6-12.8,2.4-19.2c0.2-1.6,0.4-3.2,0.6-4.8c0.3-2.6-0.7,5-0.1,1.1
				c0.1-0.7,0.2-1.5,0.3-2.2c0.6-4.3,1.2-8.6,1.8-12.9c4.8-33.7,10-67.8,19-100.6c1-3.5,2-7,3.1-10.5c0.4-1.3,4-8.6,3.5-9.6
				c0.1,0.1-2.1,4.6-1,2.4c0.3-0.6,0.6-1.3,0.9-1.9c0.6-1.2,1.2-2.3,1.8-3.4c0.9-1.5,3.2-5.9-0.8,0.6c0.4-0.6,1-1.2,1.6-1.7
				c7.1-7.1,7.1-19.2,0-26.3c-7.1-7.1-19.1-7.1-26.3,0c-8.7,8.7-12.9,21.3-16.4,32.8c-4.8,15.4-8.1,31.3-11.2,47.2
				c-6.6,34.3-11.5,69-15.8,103.7c-0.9,7.5-1.8,14.9-2.6,22.4c-1,9.7,9.3,19,18.6,18.6C1348.5,243.9,1355,236.2,1356.1,225.8
				L1356.1,225.8z"></path>
          <path d="M1743.6,491.8c4.8-2.3,9.7-4.5,14.6-6.7c2.4-1.1,4.9-2.2,7.3-3.2c1.4-0.6,2.8-1.2,4.1-1.8c0.6-0.3,1.3-0.5,1.9-0.8
				c3.4-1.5-3.7,1.5-0.4,0.2c7.3-3,14.6-6,22-8.9c36.4-14.2,73.9-26.7,112.3-34c5.2-1,10.4-1.8,15.7-2.6c3.6-0.5,0.4-0.1-0.3,0
				c1.5-0.2,3.1-0.4,4.6-0.6c2.8-0.3,5.5-0.6,8.3-0.8c10.2-0.8,20.4-1,30.6-0.2c12.5,1,20.5-12.6,17.9-23.5
				c-3.8-16.2-8.3-32.4-13.3-48.3c-4.1-13.2-8.7-26.3-14.1-39c-4.2-9.8-9-20.1-16.7-27.5c-7.2-6.9-19.1-7.2-26.3,0
				c-7,7-7.3,19.3,0,26.3c0.7,0.7,1.3,1.5,2,2.1c2.1,1.9-2.5-3.8-0.9-1.2c1.1,1.9,2.4,3.7,3.5,5.6c1.2,2.2,2.4,4.5,3.5,6.8
				c0.5,1.1,1,2.2,1.5,3.2c0.3,0.7,0.7,1.5,1,2.2c-1.1-2.5-1.2-2.8-0.4-0.9c4.5,11.5,8.5,23.1,12.1,34.8
				c4.6,15.1,8.8,30.3,12.5,45.7c6-7.8,11.9-15.7,17.9-23.5c-40.3-3.3-81.8,6.8-120.1,18.3c-34.3,10.3-67.7,23.2-100.5,37.5
				c-6.4,2.8-12.7,5.6-19,8.6c-9,4.4-11.4,17.2-6.7,25.4C1723.6,494.4,1734.5,496.2,1743.6,491.8L1743.6,491.8z"></path>
          <path d="M1955,429.9c14.1,9.9,28,20.1,41.8,30.5c2.8,2.1,5.6,4.3,8.4,6.4c0.9,0.7,1.8,1.4,2.7,2.1c2.1,1.6-2.6-2-0.5-0.4
				c1.7,1.3,3.3,2.6,5,3.9c6.6,5.2,13.2,10.4,19.7,15.8c12.5,10.2,24.8,20.8,36.6,31.9c5.5,5.3,10.9,10.7,16,16.4
				c1.2,1.3,2.3,2.7,3.5,4c0.4,0.5,0.9,1,1.3,1.6c2.4,2.9-0.7,0.1-0.5-0.7c-0.2,1,4.5,6.6,5.2,7.8c5.1,8.6,16.7,11.7,25.4,6.7
				c8.7-5.1,11.8-16.7,6.7-25.4c-14.9-25.3-39.9-45.3-62.2-63.9c-24.1-20-49.1-39-74.5-57.4c-5.3-3.8-10.5-7.6-15.8-11.3
				c-8.2-5.7-20.6-1.5-25.4,6.7C1943,413.8,1946.8,424.2,1955,429.9L1955,429.9z"></path>
          <path d="M1702.3,888.6c25.8,33.5,51.1,67.5,76,101.7c42.6,58.4,85.3,117.4,121.7,179.9c7.3,12.5,14.3,25.2,20.2,38.4
				c2.3,5.2-1.2-3.2,0.2,0.4c0.5,1.2,1,2.4,1.4,3.7c0.8,2.2,1.6,4.4,2.3,6.7c0.6,1.9,0.9,3.8,1.4,5.8c1,4-0.2-5.2-0.3-2
				c0,0.9,0.1,1.7,0.1,2.6c-0.2,9.3,8.7,19.6,18.6,18.6c29.2-3.1,58.4-7.9,87.2-13.7c48.2-9.6,98.8-21.8,141.7-46.6
				c9.5-5.5,18.7-11.9,26.8-19.5c6-5.6,13.3-13,15.5-21.1c2.4-9.1,3.3-19,4.9-28.3c7.4-43.7,14.5-87.4,21-131.2
				c3.5-23.6,6.8-47.3,9.5-71.1c1.6-14.5,3.7-29.4,3.1-44.1c-0.1-3.5-0.6-7-1.2-10.5c-1.9-9.8-13.7-15.5-22.8-13
				c-10.3,2.8-14.9,13-13,22.8c0.8,3.8-0.4-6-0.2-1.8c0,1.1,0.1,2.3,0.2,3.4c0.1,2.6,0,5.3-0.1,7.9c-0.3,7.4-1,14.9-1.7,22.3
				c-0.9,9.6-2.1,19.2-3.3,28.7c-0.7,5.3-1.3,10.6-2.1,15.8c0.5-3.5,0.3-2-0.1,0.5c-0.2,1.2-0.3,2.5-0.5,3.7
				c-0.4,2.9-0.8,5.8-1.2,8.7c-6.3,44.7-13.5,89.3-21,133.8c-2.1,12.7-4.3,25.3-6.5,38c-0.2,1.2-0.6,2.6-0.7,3.8
				c-0.1,3.3,2.6-5.6,0-1c-0.2,0.4,2.9-3.4,0.4-0.6c-0.6,0.7-1.2,1.4-1.8,2.1c-1.6,1.7-3.3,3.4-5,5c-1.6,1.5-3.2,2.8-4.9,4.2
				c-2.4,2.1,3.2-2.3,0.5-0.4c-1.1,0.8-2.3,1.7-3.4,2.5c-8.6,6-17.9,11-27.4,15.5c-2.4,1.1-4.9,2.2-7.3,3.3c-3,1.4,3.6-1.4-0.8,0.3
				c-1.4,0.6-2.8,1.1-4.2,1.7c-5.7,2.3-11.4,4.4-17.2,6.3c-23.1,7.9-46.8,14.1-70.7,19.3c-20.7,4.5-41.6,8.3-62.6,11.6
				c-3.9,0.6-7.9,1.2-11.8,1.7c-1.8,0.3-3.6,0.5-5.3,0.7c-3.1,0.4,1.1-0.2,2.1-0.3c-0.9,0.1-1.7,0.2-2.6,0.3c-4,0.5-8,0.8-11.9,1.5
				c-0.5,0.1-1,0.1-1.6,0.2c6.2,6.2,12.4,12.4,18.6,18.6c0.2-9-2.8-18-6.1-26.3c-5.1-12.5-11.1-24.6-17.7-36.4
				c-16.3-29.4-34.7-57.6-53.5-85.4c-39.2-58.2-80.6-114.9-122.8-170.9c-9.3-12.3-18.6-24.7-28-36.9c-6.1-7.9-16-12.2-25.4-6.7
				C1701.1,867.8,1696.1,880.7,1702.3,888.6L1702.3,888.6z"></path>
          <path d="M2179.2,1144.1c1,6.3,1.8,12.7,2.7,19.1c0.2,1.5,0.4,3,0.6,4.6c0.2,1.6,0.9,7.8,0.1,1c0.4,3.9,1,7.8,1.5,11.7
				c1.1,8.8,2.2,17.7,3.3,26.5c4.7,39.8,9,79.9,9.8,120c0.2,9.2,0.2,18.4-0.4,27.6c-0.1,2.2-0.3,4.4-0.5,6.5c-0.2,2.3-2.1,7.1,0,1
				c-1.1,3.2-1.2,6.9-2.2,10.2c-2.8,9.3,3.4,20.7,13,22.8c10,2.3,19.8-3,22.8-13c4.5-14.9,4.6-31.4,4.6-46.8
				c-0.1-19.8-1.3-39.6-2.9-59.4c-3.2-39.2-7.9-78.2-13.2-117.1c-1.1-8.2-2.2-16.3-3.5-24.5c-1.5-9.9-14-15.4-22.8-13
				C2181.5,1124.2,2177.7,1134.2,2179.2,1144.1L2179.2,1144.1z"></path>
          <path d="M1926,1220.9c-2.1,7.6-4.6,15-7.1,22.4c-3,8.8-6.2,17.5-9.5,26.1c-2,5.3-4.1,10.6-6.3,15.9c-1.1,2.8-2.3,5.6-3.5,8.4
				c-1.8,4.2,1.4-3.3-0.4,1c-0.7,1.7-1.4,3.3-2.2,5c-28.6,65.9-64.5,128.8-106.9,186.8c-14.1,19.2-28.3,37-44.9,56
				c-17.9,20.5-36.7,40.1-56.4,58.8c4.4-1.8,8.8-3.6,13.1-5.4c-11-0.9-22-2-33-3.2c-12-1.3-23.9-2.6-35.8-4
				c-7.1-0.9-14.3-1.7-21.4-2.7c-3.7-0.5-7.4-1-11.1-1.5c-1.1-0.1-3.6-0.4,1.3,0.2c-1-0.1-2-0.3-3-0.4c-2.2-0.3-4.5-0.6-6.7-0.9
				c-68.8-9.6-138.3-20.9-204.6-42.1c-8.2-2.6-16.3-5.4-24.3-8.5c-1.7-0.7-3.4-1.3-5.1-2c-1.4-0.6-8.5-2.8-2.5-1
				c-3.5-1.1-7-3.1-10.3-4.7c-6-2.9-11.9-6-17.6-9.6c-2.6-1.6-5.1-3.4-7.6-5.2c-2.5-1.8,1.5,0.2,1.6,1.2c0-0.2-1.7-1.3-1.8-1.5
				c-1.1-1-2.3-1.9-3.4-2.9c1.8,4.4,3.6,8.8,5.4,13.1c0.1-15.4,0.2-30.8,0.2-46.2c0.2-37,0.4-74,0.6-111
				c0.2-44.6,0.5-89.1,0.7-133.7c0.2-38.7,0.4-77.4,0.6-116.1c0.1-18.8,0.8-37.7,0.3-56.4c0-0.3,0-0.5,0-0.8
				c0.1-9.7-8.6-19-18.6-18.6c-10.1,0.5-18.5,8.2-18.6,18.6c-0.1,20.7-0.2,41.3-0.3,62c-0.3,47.1-0.5,94.1-0.8,141.2
				c-0.3,51.1-0.5,102.3-0.8,153.4c-0.2,32.9-0.4,65.7-0.5,98.6c0,2.7-0.1,5.5,0,8.3c0.4,11.7,9,17.5,17.5,23.7
				c18.3,13.2,40.1,21.7,61.2,29.2c53.7,18.9,110.4,29.7,166.4,38.9c48.2,7.9,96.7,14.2,145.3,19.2c8.6,0.9,17.7,2.6,26.4,2.5
				c10.4-0.1,17.5-9.3,24.4-16.1c8.2-8.1,16.3-16.3,24.1-24.7c15.4-16.4,30.1-33.4,44.2-51c47.5-59.2,88.1-123.7,120.7-192.2
				c17.4-36.5,33.3-74.2,45-113c0.5-1.7,1.1-3.5,1.5-5.3c2.6-9.4-3.2-20.6-13-22.8C1939,1205.7,1928.7,1210.9,1926,1220.9
				L1926,1220.9z"></path>
          <path d="M1294.1,1504.4c-36.6,24.4-74.1,47.6-111.9,70.1c-33.7,20.1-67.8,39.5-102.6,57.8c-17.3,9.1-34.7,17.8-52.4,26.1
				c-8.5,4-17.1,7.8-25.7,11.5c-1,0.4-4.9,2,0.1,0c-0.7,0.3-1.4,0.6-2.2,0.9c-2.1,0.9-4.3,1.8-6.4,2.6c-3.8,1.5-7.7,3-11.5,4.5
				c-15.5,5.9-31.4,11.2-47.7,14.4c-1.6,0.3-3.2,0.6-4.9,0.9c-0.8,0.1-1.6,0.2-2.4,0.4c-3.1,0.6,5.6-0.6,1.1-0.1
				c-2.9,0.3-5.8,0.6-8.7,0.7c-2.8,0.1-5.7,0-8.5-0.2c-5-0.3,4.2,0.9,0.8,0.1c-1.3-0.3-2.6-0.5-3.8-0.8c-6.4-1.7-13.3,0.1-18.1,4.8
				c-5.2,5.2-5.7,11.2-4.8,18.1c4.2,31.1,8.4,62.2,12.6,93.3c6.7,49.2,13.3,98.5,20,147.7c1.5,11,2.2,22.4,4.5,33.2
				c1.7,8.1,8.4,11.7,15.2,14.8c9.2,4.3,18.5,8.2,27.9,12.1c17.5,7.1,35.3,13.4,53.3,19.1c69.3,21.9,141.2,35.7,213.1,45.7
				c26.1,3.6,52.2,6.8,78.5,9.3c7,0.7,14.1,1.3,21.1,1.9c4.2,0.3,8.2,0.9,12.3-0.1c8.5-2.2,16.9-6.7,25-10c22-9,43.8-18.3,65.6-27.8
				c59-25.8,117.4-53.4,173.4-85.1c26.5-15,52.6-30.9,77-49.3c11-8.3,22.4-16.8,32.1-26.7c6.2-6.3,7-12.3,6.9-20.1
				c-0.4-41.5-0.8-83-1.2-124.5c-0.4-42.5-0.8-85-1.2-127.6c0-2.4,0-4.9-0.1-7.3c-0.1-9.7-8.5-19-18.6-18.6
				c-10,0.4-18.7,8.2-18.6,18.6c0.3,29.8,0.6,59.6,0.8,89.3c0.4,47.5,0.9,95,1.3,142.6c0.1,11,0.2,22,0.3,33
				c1.8-4.4,3.6-8.8,5.4-13.1c-4.3,4.2-8.8,8.3-13.4,12.2c-2.2,1.9-4.5,3.8-6.8,5.6c-1.3,1-2.5,2-3.8,3c-2.5,2,0.5-0.4,0.8-0.7
				c-1,0.7-2,1.5-3,2.3c-11.5,8.7-23.5,16.8-35.7,24.5c-27.5,17.5-56,33.3-85,48.3c-28.9,15-58.3,29.1-87.9,42.7
				c-13.3,6.1-26.7,12.1-40.2,18c-11.5,5-23.8,9.2-34.9,15c5-2.6,1.1-0.4-0.3,0.1c-1.2,0.5-2.5,1-3.7,1.5c-2.5,1-5,2.1-7.4,3.1
				c-4.3,1.8-8.5,3.5-12.8,5.3c-5.9,2.4-11.9,4.8-17.8,7.2c-1.6,0.6-3.3,1.2-4.8,1.9c-4.2,2,3.6-1.3,3.3,0c0,0.2-7.9-0.6-8.3-0.6
				c-18.4-1.5-36.8-3.4-55.1-5.5c-6.8-0.8-13.6-1.6-20.4-2.5c-1.5-0.2-3.1-0.4-4.6-0.6c-1.7-0.2-6.1-0.8-1.8-0.2
				c-3.9-0.5-7.9-1.1-11.8-1.6c-16.4-2.3-32.7-4.9-49-7.6c-73.8-12.6-147.8-29.6-217.2-58.3c3.5,1.4-2.4-1.1-3.2-1.4
				c-1.8-0.8-3.5-1.5-5.3-2.3c-4.2-1.9-8.4-3.8-12.5-5.8c2.8,3.7,5.7,7.4,8.5,11.1c-5.1-30.6-8.3-61.5-12.5-92.2
				c-6.7-49.5-13.4-98.9-20.1-148.4c-1.5-11.4-3.1-22.7-4.6-34.1c-7.6,7.6-15.2,15.2-22.8,22.8c26,6.9,55.2-1.8,79.8-10.2
				c35.6-12.1,69.9-28.3,103.5-45.3c65.7-33.4,129.1-71.2,191.3-110.6c13.7-8.7,27.3-17.4,40.8-26.4c8.3-5.6,11.9-16.4,6.7-25.4
				C1314.7,1502.8,1302.5,1498.8,1294.1,1504.4L1294.1,1504.4z"></path>
          <path d="M1695.1,1895.4c12.7,6.9,28.4,8.8,42.5,9.8c37.9,2.6,76.9-6.4,112.6-18.3c35.6-11.9,69.9-27.6,103-45.2
				c-3.1,0.8-6.2,1.7-9.4,2.5c0,0,0,0,0,0c9.7,0,19-8.5,18.6-18.6c-0.5-10.1-8.2-18.6-18.6-18.6c-8.9,0-18.6,7.4-26.4,11.4
				c-8,4-16.1,7.9-24.3,11.7c-3.8,1.8-7.7,3.5-11.6,5.2c-3.8,1.7-2.9,1.3-6.7,2.9c-7,2.9-14.1,5.6-21.2,8.3
				c-22,8-44.6,14.7-67.6,18.8c-2,0.4-4.1,0.7-6.1,1c-1.2,0.2-2.4,0.3-3.5,0.5c-4.2,0.7,4.5-0.5,0.4-0.1c-4.3,0.5-8.5,1-12.8,1.3
				c-7,0.5-13.9,0.7-20.9,0.4c-2.8-0.1-5.5-0.3-8.3-0.5c-1.1-0.1-2.3-0.2-3.4-0.3c-0.7-0.1-1.3-0.2-2-0.2c-2.9-0.3,5.2,0.8,2.5,0.3
				c-3.9-0.7-7.8-1.3-11.7-2.3c-2.7-0.7-5.3-1.7-8-2.6c-2.7-0.9,6,2.6,2.3,1c-0.2-0.1-0.4-0.2-0.6-0.3c-8.8-4.8-20.2-2.2-25.4,6.7
				C1683.5,1878.4,1686.3,1890.5,1695.1,1895.4L1695.1,1895.4z"></path>
          <path d="M1319.6,2074.9c0,16.5,0,33,0,49.5c0,9.7,8.5,19,18.6,18.6c10.1-0.5,18.6-8.2,18.6-18.6c0-16.5,0-33,0-49.5
				c0-9.7-8.5-19-18.6-18.6C1328.1,2056.8,1319.6,2064.5,1319.6,2074.9L1319.6,2074.9z"></path>
        </g>
      </g>
    </g>
    <g>
      <path d="M 56.83 21.74 C 68.41 23.12 78.79 28.41 86.63 36.24 C 95.81 45.42 101.49 58.11 101.49 72.12 C 101.49 86.13 95.81 98.82 86.63 108.01 C 77.45 117.2 64.76 122.88 50.74 122.88 C 36.73 122.88 24.04 117.2 14.86 108.01 C 5.68 98.83 0 86.14 0 72.13 C 0 58.12 5.68 45.43 14.86 36.25 C 23.27 27.84 34.63 22.36 47.24 21.5 L 47.24 12.99 C 47.24 12.86 47.25 12.73 47.26 12.61 L 37.75 12.61 C 36.19 12.61 34.92 11.33 34.92 9.78 L 34.92 2.83 C 34.92 1.28 36.2 0 37.76 0 L 66.33 0 C 67.89 0 69.17 1.28 69.17 2.83 L 69.17 9.77 C 69.17 11.33 67.89 12.6 66.33 12.6 L 56.82 12.6 C 56.83 12.73 56.84 12.85 56.84 12.98 L 56.84 21.74 L 56.83 21.74 Z M 96.33 37.07 C 98.3 32.37 98.07 27.44 95.25 24.15 C 91.87 20.19 85.75 19.74 80.08 22.52 C 86.08 26.65 91.54 31.45 96.33 37.07 Z M 5.17 37.07 C 3.2 32.37 3.43 27.44 6.25 24.15 C 9.63 20.19 15.75 19.74 21.43 22.52 C 15.41 26.65 9.95 31.45 5.17 37.07 Z M 84.816 37.88 C 77.106 30.17 63.5 24.252 51.74 24.252 C 39.98 24.252 25.034 30.5 17.324 38.21 C 9.614 45.92 2.944 60.719 2.944 72.479 C 2.944 84.239 9.43 98.205 17.14 105.905 C 24.85 113.605 39.155 119.568 50.915 119.568 C 62.685 119.568 76.369 113.615 84.069 105.905 C 91.769 98.195 98.848 83.687 98.848 71.917 C 98.848 60.167 92.526 45.59 84.816 37.88 Z" style=""></path>
    </g>
  </g>
</svg>